<?xml version="1.0" encoding="iso-8859-1"?>
<!-- Generator: Adobe Illustrator 19.0.0, SVG Export Plug-In . SVG Version: 6.00 Build 0)  -->
<svg version="1.1" id="Layer_1" xmlns="http://www.w3.org/2000/svg" xmlns:xlink="http://www.w3.org/1999/xlink" x="0px" y="0px"
	 viewBox="0 0 512 512" style="enable-background:new 0 0 512 512;" xml:space="preserve">
<g>
	<g>
		<path d="M462.222,373.052V138.948C491.042,129.865,512,102.892,512,71.111C512,31.9,480.1,0,440.889,0
			c-31.781,0-58.755,20.958-67.837,49.778H138.948C129.866,20.958,102.892,0,71.111,0C31.9,0,0,31.9,0,71.111
			c0,31.781,20.958,58.755,49.778,67.837v234.104C20.958,382.135,0,409.108,0,440.889C0,480.1,31.9,512,71.111,512
			c31.781,0,58.755-20.958,67.837-49.778h234.104c9.084,28.82,36.056,49.778,67.837,49.778C480.1,512,512,480.1,512,440.889
			C512,409.108,491.042,382.135,462.222,373.052z M440.889,42.667c15.684,0,28.444,12.76,28.444,28.444
			c0,15.684-12.76,28.444-28.444,28.444c-15.684,0-28.444-12.76-28.444-28.444C412.444,55.427,425.205,42.667,440.889,42.667z
			 M42.667,71.111c0-15.684,12.76-28.444,28.444-28.444c15.684,0,28.444,12.76,28.444,28.444c0,15.684-12.76,28.444-28.444,28.444
			C55.427,99.556,42.667,86.795,42.667,71.111z M71.111,469.333c-15.684,0-28.444-12.76-28.444-28.444
			c0-15.684,12.76-28.444,28.444-28.444c15.684,0,28.444,12.76,28.444,28.444C99.556,456.573,86.795,469.333,71.111,469.333z
			 M373.052,419.556H138.948c-6.959-22.081-24.422-39.545-46.504-46.504V138.948c22.081-6.959,39.545-24.422,46.504-46.504h234.104
			c6.959,22.081,24.422,39.545,46.504,46.504v234.104C397.474,380.012,380.011,397.474,373.052,419.556z M440.889,469.333
			c-15.684,0-28.444-12.76-28.444-28.444c0-15.684,12.76-28.444,28.444-28.444c15.684,0,28.444,12.76,28.444,28.444
			C469.333,456.573,456.573,469.333,440.889,469.333z"/>
	</g>
</g>
<g>
</g>
<g>
</g>
<g>
</g>
<g>
</g>
<g>
</g>
<g>
</g>
<g>
</g>
<g>
</g>
<g>
</g>
<g>
</g>
<g>
</g>
<g>
</g>
<g>
</g>
<g>
</g>
<g>
</g>
</svg>
